<?xml version="1.0" encoding="UTF-8"?>
<svg width="978px" height="146px" viewBox="0 0 978 146" version="1.1" xmlns="http://www.w3.org/2000/svg" xmlns:xlink="http://www.w3.org/1999/xlink">
    <!-- Generator: Sketch 55.1 (78136) - https://sketchapp.com -->
    <title>Group</title>
    <desc>Created with Sketch.</desc>
    <g id="CREA" stroke="none" stroke-width="1" fill="none" fill-rule="evenodd">
        <g id="Group" fill="#282828" fill-rule="nonzero">
            <path d="M209,108.5 L209,35.9 L227.7,35.9 L227.7,41.7 C233.2,37.2 240.1,34.4 248.2,34.4 C258.2,34.4 267.4,38.9 273.3,46.1 C278.1,51.8 280.8,59.1 280.8,71.5 L280.8,108.5 L261.3,108.5 L261.3,70 C261.3,62.8 259.7,59.1 257,56.4 C254.5,53.9 250.6,52.4 246.1,52.4 C237.9,52.4 231.1,57.6 228.4,61.4 L228.4,108.5 L209,108.5 Z" id="Path"></path>
            <path d="M436.1,97 C429.1,105.4 417.5,110 406.3,110 C384.6,110 368.3,95 368.3,72.3 C368.3,52.1 382.1,34.4 403.6,34.4 C423.7,34.4 437.9,51.3 437.9,71.5 C437.9,73.4 437.7,75.4 437.5,77 L387.2,77 C388.2,87.2 396.5,94.2 406.8,94.2 C415,94.2 421.6,89.6 425.1,85.8 L436.1,97 Z M418,62.8 C417.4,56.4 411.6,50.1 403.6,50.1 C395.5,50.1 388.9,56.2 388,62.8 L418,62.8 Z" id="Shape"></path>
            <path d="M193.2,108.5 L174.5,108.5 L174.5,102.7 C168.5,107.8 161.6,110 154.3,110 C143.5,110 133.3,105.2 126.9,97.7 C121.2,91.1 117.6,82.1 117.6,72.3 C117.6,50.9 133.5,34.4 153.2,34.4 C161.4,34.4 168.8,37.1 174.5,41.7 L174.5,35.9 L193.2,35.9 L193.2,108.5 Z M173.7,61.3 C169.7,55.9 163.2,52.3 155.7,52.3 C144.3,52.3 137,61.7 137,72.2 C137,83.6 145.2,92 156.2,92 C163.5,92 170,88.4 173.7,83 L173.7,61.3 Z" id="Shape"></path>
            <path d="M363.8,93.7 C355.3,105.1 344.5,110 330.9,110 C308.5,110 292,93.2 292,72.3 C292,51.2 308.9,34.4 331.1,34.4 C343.7,34.4 354.9,40.2 361.6,48.9 L347.8,61 C343.9,55.9 338.1,52.3 331,52.3 C319.8,52.3 311.4,61.1 311.4,72.2 C311.4,83.6 319.6,92 331.5,92 C339.4,92 345.7,87.2 348.9,82.4 L363.8,93.7 Z" id="Path"></path>
            <path d="M114.6,53.1 C113.3,52.7 110.4,52.4 107.6,52.4 C99.1,52.4 92.3,58.5 89.9,62.9 L89.9,108.6 L70.4,108.6 L70.4,36 L89.1,36 L89.1,43.3 C93.4,37.9 101.4,34.5 110.2,34.5 C113,34.5 114.7,34.8 116.8,35.1 L114.6,53.1 Z" id="Path"></path>
            <path d="M58.5,18.7 C56.9,18.3 54.5,18 52.7,18 C47.9,18 44.2,19.3 41.8,22.2 C40.2,24.3 39.1,27 39.1,33.7 L39.1,35.9 L61.5,35.9 L61.5,52.4 L39,52.4 L39,108.5 L19.5,108.5 L19.5,52.4 L0.8,52.4 L0.8,35.9 L19.5,35.9 L19.5,32.9 C19.5,21.2 22.2,14.2 27.3,9.3 C32.4,4.4 40,0.8 49.9,0.8 C53.8,0.8 57.4,1.1 61.4,2.1 L58.5,18.7 Z" id="Path"></path>
            <path d="M495.9,72.2 C495.9,83.2 487,92 476.1,92 C465.2,92 456.3,83.1 456.3,72.2 C456.3,61.3 465.2,52.4 476.1,52.4 C487,52.4 495.9,61.2 495.9,72.2" id="Path"></path>
            <path d="M539.2,35.9 L539.2,15.7 L519.7,15.7 L519.7,35.9 L501,35.9 L501,52.4 L519.7,52.4 L519.7,77.8 C519.7,88.1 521.3,94.6 525.1,99.5 C530,106.1 538.6,110 550.2,110 C553.9,110 559.8,109.4 562.3,108.5 L559.3,92 C558,92.3 554.2,92.8 551.4,92.8 C546.6,92.8 543.5,91.5 541.5,89.2 C539.9,87.3 539.1,84.6 539.1,80.1 L539.1,52.4 L563,52.4 L588.8,108.5 L602.3,108.5 L635.7,35.9 L615.5,35.9 L595.6,80.2 L575.7,35.9 L539.2,35.9 L539.2,35.9 Z" id="Path"></path>
            <path d="M674.2,66.1 C665.8,63.8 658.5,61.7 658.5,55.9 C658.5,48.9 665.6,45.3 672.6,45.3 C679.6,45.3 683.6,47.1 689.4,50.8 L690.5,51.5 L696.5,42.1 L695.4,41.4 C691.5,38.8 683.4,34.4 672.1,34.4 C659.8,34.4 647,42.5 647,56.1 C647,69.9 659.4,73.3 670.3,76.2 C679.4,78.7 687.3,80.8 687.3,88.1 C687.3,94.3 681,99 672.5,99 C663.7,99 656.6,94.6 652.2,90.9 L651.1,90 L644.1,98.8 L645,99.6 C652.2,106.3 662.2,109.9 673.1,109.9 C687.9,109.9 698.700544,100.5 698.700544,87.5 C698.8,73 685.1,69.2 674.2,66.1" id="Path"></path>
            <path d="M769.1,42.5 C762.8,37.3 754.4,34.4 746,34.4 C736.8,34.4 728.2,37.7 721.7,43.7 L721.7,36 L710.6,36 L710.6,145.4 L722,145.4 L722,100.9 C727.9,106.8 736.3,110.2 745.5,110.2 C753.5,110.2 760.7,107.9 767.1,103.4 C776.9,96.5 782.5,85.2 782.5,72.4 C782.6,60.6 777.7,49.7 769.1,42.5 M745.7,99 C736.2,99 727.4,93.6 722.1,84.6 L722.1,58.4 C725.4,53 734.3,45.3 745.9,45.3 C751.6,45.3 757.5,47.4 761.9,51 C767.8,55.9 771.2,63.6 771.2,72.2 C771.2,81.3 767.3,89.5 760.7,94.1 C756,97.4 750.9,99 745.7,99" id="Shape"></path>
            <path d="M830,34.3 C809,34.3 792.6,50.9 792.6,72.1 C792.6,93.3 809,109.9 830,109.9 C851,109.9 867.4,93.3 867.4,72.1 C867.4,51 851,34.3 830,34.3 M830,99 C815.2,99 804.1,87.4 804.1,72.1 C804.1,56.8 815.3,45.2 830,45.2 C844.8,45.2 855.9,56.7 855.9,72.1 C855.9,87.5 844.8,99 830,99" id="Shape"></path>
            <path d="M975.1,97.8 L973.7,98.2 C971.3,98.9 968.5,99.1 966.6,99.1 C962,99.1 958.3,97.6 956,94.7 C954.6,92.9 953.2,90.3 953.2,83.9 L953.2,46.9 L977,46.9 L977,35.9 L953.2,35.9 L953.2,16.9 L941.8,16.9 L941.8,35.9 L922.2,35.9 L922.2,46.9 L941.8,46.9 L941.8,83.6 C941.8,91.7 943.4,97.2 946.8,101.6 C952.7,109 961.7,110.1 966.6,110.1 C969.4,110.1 973.5,109.7 976.1,108.8 L977.2,108.4 L975.1,97.8 Z" id="Path"></path>
            <path d="M914.5,46.6 L916.1,35.8 L916.1,35.8 C915,35.6 911.8,35.5 910.7,35.5 C901.8,35.5 894.4,39.3 890,43.8 L890,35.8 L878.6,35.8 L878.6,108.4 L890,108.4 L890,60.8 C893.6,52.2 901.9,46.4 910.6,46.4 C912.4,46.5 913.9,46.6 914.5,46.6 L914.5,46.6 Z" id="Path"></path>
        </g>
    </g>
</svg>